<mxfile host="Electron" agent="Mozilla/5.0 (Windows NT 10.0; Win64; x64) AppleWebKit/537.36 (KHTML, like Gecko) draw.io/24.7.8 Chrome/128.0.6613.36 Electron/32.0.1 Safari/537.36" version="24.7.8">
  <diagram id="yPxyJZ8AM_hMuL3Unpa9" name="complex gitflow">
    <mxGraphModel dx="1062" dy="655" grid="1" gridSize="10" guides="1" tooltips="1" connect="1" arrows="1" fold="1" page="1" pageScale="1" pageWidth="1100" pageHeight="850" math="0" shadow="0">
      <root>
        <mxCell id="0" />
        <mxCell id="1" parent="0" />
        <mxCell id="kYi4eVeZb-P7_ZHlsTHM-3" value="Awaiting" style="ellipse;whiteSpace=wrap;html=1;aspect=fixed;" parent="1" vertex="1">
          <mxGeometry x="395" y="310" width="80" height="80" as="geometry" />
        </mxCell>
        <mxCell id="kYi4eVeZb-P7_ZHlsTHM-4" value="Multi Line Comment" style="ellipse;whiteSpace=wrap;html=1;aspect=fixed;" parent="1" vertex="1">
          <mxGeometry x="595" y="460" width="80" height="80" as="geometry" />
        </mxCell>
        <mxCell id="kYi4eVeZb-P7_ZHlsTHM-5" value="Asterisk" style="ellipse;whiteSpace=wrap;html=1;aspect=fixed;" parent="1" vertex="1">
          <mxGeometry x="395" y="460" width="80" height="80" as="geometry" />
        </mxCell>
        <mxCell id="kYi4eVeZb-P7_ZHlsTHM-6" value="Slash" style="ellipse;whiteSpace=wrap;html=1;aspect=fixed;" parent="1" vertex="1">
          <mxGeometry x="595" y="310" width="80" height="80" as="geometry" />
        </mxCell>
        <mxCell id="kYi4eVeZb-P7_ZHlsTHM-7" value="" style="endArrow=classic;html=1;rounded=0;entryX=-0.038;entryY=0.505;entryDx=0;entryDy=0;entryPerimeter=0;" parent="1" target="kYi4eVeZb-P7_ZHlsTHM-6" edge="1">
          <mxGeometry width="50" height="50" relative="1" as="geometry">
            <mxPoint x="475" y="350" as="sourcePoint" />
            <mxPoint x="525" y="300" as="targetPoint" />
          </mxGeometry>
        </mxCell>
        <mxCell id="kYi4eVeZb-P7_ZHlsTHM-8" value="" style="endArrow=classic;html=1;rounded=0;entryX=0.5;entryY=0;entryDx=0;entryDy=0;exitX=0.5;exitY=1;exitDx=0;exitDy=0;" parent="1" source="kYi4eVeZb-P7_ZHlsTHM-6" target="kYi4eVeZb-P7_ZHlsTHM-4" edge="1">
          <mxGeometry width="50" height="50" relative="1" as="geometry">
            <mxPoint x="585" y="440" as="sourcePoint" />
            <mxPoint x="702" y="440" as="targetPoint" />
          </mxGeometry>
        </mxCell>
        <mxCell id="kYi4eVeZb-P7_ZHlsTHM-9" value="" style="endArrow=classic;html=1;rounded=0;entryX=1;entryY=0.5;entryDx=0;entryDy=0;exitX=0;exitY=0.5;exitDx=0;exitDy=0;" parent="1" source="kYi4eVeZb-P7_ZHlsTHM-4" target="kYi4eVeZb-P7_ZHlsTHM-5" edge="1">
          <mxGeometry width="50" height="50" relative="1" as="geometry">
            <mxPoint x="645" y="350" as="sourcePoint" />
            <mxPoint x="645" y="470" as="targetPoint" />
          </mxGeometry>
        </mxCell>
        <mxCell id="kYi4eVeZb-P7_ZHlsTHM-10" value="" style="endArrow=classic;html=1;rounded=0;entryX=0.5;entryY=1;entryDx=0;entryDy=0;exitX=0.5;exitY=0;exitDx=0;exitDy=0;" parent="1" source="kYi4eVeZb-P7_ZHlsTHM-5" target="kYi4eVeZb-P7_ZHlsTHM-3" edge="1">
          <mxGeometry width="50" height="50" relative="1" as="geometry">
            <mxPoint x="605" y="560" as="sourcePoint" />
            <mxPoint x="485" y="560" as="targetPoint" />
          </mxGeometry>
        </mxCell>
        <mxCell id="kYi4eVeZb-P7_ZHlsTHM-13" value="" style="curved=1;endArrow=classic;html=1;rounded=0;exitX=0.016;exitY=0.404;exitDx=0;exitDy=0;exitPerimeter=0;" parent="1" source="kYi4eVeZb-P7_ZHlsTHM-3" target="kYi4eVeZb-P7_ZHlsTHM-3" edge="1">
          <mxGeometry width="50" height="50" relative="1" as="geometry">
            <mxPoint x="335" y="310" as="sourcePoint" />
            <mxPoint x="365" y="360" as="targetPoint" />
            <Array as="points">
              <mxPoint x="375" y="350" />
            </Array>
          </mxGeometry>
        </mxCell>
        <mxCell id="kYi4eVeZb-P7_ZHlsTHM-14" value="&#39;/&#39;" style="text;html=1;align=center;verticalAlign=middle;resizable=0;points=[];autosize=1;strokeColor=none;fillColor=none;" parent="1" vertex="1">
          <mxGeometry x="435" y="410" width="30" height="30" as="geometry" />
        </mxCell>
        <mxCell id="kYi4eVeZb-P7_ZHlsTHM-15" value="&#39;/&#39;" style="text;html=1;align=center;verticalAlign=middle;resizable=0;points=[];autosize=1;strokeColor=none;fillColor=none;" parent="1" vertex="1">
          <mxGeometry x="515" y="318" width="30" height="30" as="geometry" />
        </mxCell>
        <mxCell id="kYi4eVeZb-P7_ZHlsTHM-16" value="&#39;*&#39;" style="text;html=1;align=center;verticalAlign=middle;resizable=0;points=[];autosize=1;strokeColor=none;fillColor=none;" parent="1" vertex="1">
          <mxGeometry x="635" y="410" width="30" height="30" as="geometry" />
        </mxCell>
        <mxCell id="kYi4eVeZb-P7_ZHlsTHM-17" value="&#39;*&#39;" style="text;html=1;align=center;verticalAlign=middle;resizable=0;points=[];autosize=1;strokeColor=none;fillColor=none;" parent="1" vertex="1">
          <mxGeometry x="515" y="500" width="30" height="30" as="geometry" />
        </mxCell>
        <mxCell id="kYi4eVeZb-P7_ZHlsTHM-19" value="" style="curved=1;endArrow=classic;html=1;rounded=0;exitX=1.016;exitY=0.404;exitDx=0;exitDy=0;exitPerimeter=0;" parent="1" source="kYi4eVeZb-P7_ZHlsTHM-4" target="kYi4eVeZb-P7_ZHlsTHM-4" edge="1">
          <mxGeometry width="50" height="50" relative="1" as="geometry">
            <mxPoint x="736" y="487.5" as="sourcePoint" />
            <mxPoint x="737" y="512.5" as="targetPoint" />
            <Array as="points" />
          </mxGeometry>
        </mxCell>
        <mxCell id="kYi4eVeZb-P7_ZHlsTHM-20" value="∀" style="text;html=1;align=center;verticalAlign=middle;resizable=0;points=[];autosize=1;strokeColor=none;fillColor=none;" parent="1" vertex="1">
          <mxGeometry x="695" y="485" width="30" height="30" as="geometry" />
        </mxCell>
        <mxCell id="kYi4eVeZb-P7_ZHlsTHM-24" value="∀&lt;sub&gt;C&lt;/sub&gt;/C" style="text;html=1;align=center;verticalAlign=middle;resizable=0;points=[];autosize=1;strokeColor=none;fillColor=none;" parent="1" vertex="1">
          <mxGeometry x="340" y="360" width="50" height="30" as="geometry" />
        </mxCell>
        <mxCell id="kYi4eVeZb-P7_ZHlsTHM-26" value="" style="curved=1;endArrow=classic;html=1;rounded=0;exitX=0;exitY=0;exitDx=0;exitDy=0;" parent="1" source="kYi4eVeZb-P7_ZHlsTHM-6" target="kYi4eVeZb-P7_ZHlsTHM-3" edge="1">
          <mxGeometry width="50" height="50" relative="1" as="geometry">
            <mxPoint x="515" y="470" as="sourcePoint" />
            <mxPoint x="565" y="420" as="targetPoint" />
            <Array as="points">
              <mxPoint x="535" y="250" />
            </Array>
          </mxGeometry>
        </mxCell>
        <mxCell id="kYi4eVeZb-P7_ZHlsTHM-27" value="∀&lt;sub&gt;C&lt;/sub&gt;/&#39;/&#39;C" style="text;html=1;align=center;verticalAlign=middle;resizable=0;points=[];autosize=1;strokeColor=none;fillColor=none;" parent="1" vertex="1">
          <mxGeometry x="500" y="280" width="60" height="30" as="geometry" />
        </mxCell>
        <mxCell id="kYi4eVeZb-P7_ZHlsTHM-34" value="" style="curved=1;endArrow=classic;html=1;rounded=0;exitX=-0.014;exitY=0.374;exitDx=0;exitDy=0;exitPerimeter=0;" parent="1" source="kYi4eVeZb-P7_ZHlsTHM-5" target="kYi4eVeZb-P7_ZHlsTHM-5" edge="1">
          <mxGeometry width="50" height="50" relative="1" as="geometry">
            <mxPoint x="350" y="465" as="sourcePoint" />
            <mxPoint x="380" y="515" as="targetPoint" />
            <Array as="points">
              <mxPoint x="375" y="500" />
            </Array>
          </mxGeometry>
        </mxCell>
        <mxCell id="kYi4eVeZb-P7_ZHlsTHM-35" value="&#39;*&#39;" style="text;html=1;align=center;verticalAlign=middle;resizable=0;points=[];autosize=1;strokeColor=none;fillColor=none;" parent="1" vertex="1">
          <mxGeometry x="350" y="488" width="30" height="30" as="geometry" />
        </mxCell>
        <mxCell id="kYi4eVeZb-P7_ZHlsTHM-36" value="" style="curved=1;endArrow=classic;html=1;rounded=0;exitX=0.826;exitY=0.91;exitDx=0;exitDy=0;exitPerimeter=0;entryX=0.189;entryY=0.898;entryDx=0;entryDy=0;entryPerimeter=0;" parent="1" source="kYi4eVeZb-P7_ZHlsTHM-5" target="kYi4eVeZb-P7_ZHlsTHM-4" edge="1">
          <mxGeometry width="50" height="50" relative="1" as="geometry">
            <mxPoint x="495" y="590" as="sourcePoint" />
            <mxPoint x="545" y="540" as="targetPoint" />
            <Array as="points">
              <mxPoint x="535" y="590" />
            </Array>
          </mxGeometry>
        </mxCell>
        <mxCell id="kYi4eVeZb-P7_ZHlsTHM-37" value="∀" style="text;html=1;align=center;verticalAlign=middle;resizable=0;points=[];autosize=1;strokeColor=none;fillColor=none;" parent="1" vertex="1">
          <mxGeometry x="515" y="560" width="30" height="30" as="geometry" />
        </mxCell>
        <mxCell id="kYi4eVeZb-P7_ZHlsTHM-40" value="" style="endArrow=classic;html=1;rounded=0;entryX=0.054;entryY=0.3;entryDx=0;entryDy=0;entryPerimeter=0;" parent="1" edge="1">
          <mxGeometry width="50" height="50" relative="1" as="geometry">
            <mxPoint x="350" y="340" as="sourcePoint" />
            <mxPoint x="399.32000000000005" y="334" as="targetPoint" />
          </mxGeometry>
        </mxCell>
        <mxCell id="kYi4eVeZb-P7_ZHlsTHM-38" value="" style="shape=waypoint;sketch=0;size=6;pointerEvents=1;points=[];fillColor=none;resizable=0;rotatable=0;perimeter=centerPerimeter;snapToPoint=1;" parent="1" vertex="1">
          <mxGeometry x="340" y="330" width="20" height="20" as="geometry" />
        </mxCell>
        <mxCell id="JAiuNVbHRDiF1WZMakBt-31" value="Char" style="ellipse;whiteSpace=wrap;html=1;aspect=fixed;" vertex="1" parent="1">
          <mxGeometry x="314" y="160" width="80" height="80" as="geometry" />
        </mxCell>
        <mxCell id="JAiuNVbHRDiF1WZMakBt-32" value="String" style="ellipse;whiteSpace=wrap;html=1;aspect=fixed;" vertex="1" parent="1">
          <mxGeometry x="465" y="160" width="80" height="80" as="geometry" />
        </mxCell>
        <mxCell id="JAiuNVbHRDiF1WZMakBt-33" value="Backslash String" style="ellipse;whiteSpace=wrap;html=1;aspect=fixed;" vertex="1" parent="1">
          <mxGeometry x="464" y="30" width="80" height="80" as="geometry" />
        </mxCell>
        <mxCell id="JAiuNVbHRDiF1WZMakBt-34" value="Backslash Char" style="ellipse;whiteSpace=wrap;html=1;aspect=fixed;" vertex="1" parent="1">
          <mxGeometry x="314" y="30" width="80" height="80" as="geometry" />
        </mxCell>
        <mxCell id="JAiuNVbHRDiF1WZMakBt-37" value="" style="endArrow=classic;html=1;rounded=0;exitX=0.675;exitY=0.021;exitDx=0;exitDy=0;exitPerimeter=0;entryX=0.708;entryY=0.963;entryDx=0;entryDy=0;entryPerimeter=0;" edge="1" parent="1" source="JAiuNVbHRDiF1WZMakBt-32" target="JAiuNVbHRDiF1WZMakBt-33">
          <mxGeometry width="50" height="50" relative="1" as="geometry">
            <mxPoint x="464" y="170" as="sourcePoint" />
            <mxPoint x="514" y="120" as="targetPoint" />
          </mxGeometry>
        </mxCell>
        <mxCell id="JAiuNVbHRDiF1WZMakBt-39" value="&#39;\&#39;/&#39;\&#39;" style="edgeLabel;html=1;align=center;verticalAlign=middle;resizable=0;points=[];" vertex="1" connectable="0" parent="JAiuNVbHRDiF1WZMakBt-37">
          <mxGeometry x="-0.1069" y="-1" relative="1" as="geometry">
            <mxPoint as="offset" />
          </mxGeometry>
        </mxCell>
        <mxCell id="JAiuNVbHRDiF1WZMakBt-38" value="" style="endArrow=classic;html=1;rounded=0;exitX=0.375;exitY=1;exitDx=0;exitDy=0;exitPerimeter=0;entryX=0.354;entryY=-0.004;entryDx=0;entryDy=0;entryPerimeter=0;" edge="1" parent="1" source="JAiuNVbHRDiF1WZMakBt-33" target="JAiuNVbHRDiF1WZMakBt-32">
          <mxGeometry width="50" height="50" relative="1" as="geometry">
            <mxPoint x="464" y="170" as="sourcePoint" />
            <mxPoint x="514" y="120" as="targetPoint" />
          </mxGeometry>
        </mxCell>
        <mxCell id="JAiuNVbHRDiF1WZMakBt-42" value="&lt;span style=&quot;font-size: 12px; background-color: rgb(27, 29, 30);&quot;&gt;∀&lt;/span&gt;&lt;sub style=&quot;background-color: rgb(27, 29, 30);&quot;&gt;C&lt;/sub&gt;&lt;span style=&quot;font-size: 12px; background-color: rgb(27, 29, 30);&quot;&gt;/C&lt;/span&gt;" style="edgeLabel;html=1;align=center;verticalAlign=middle;resizable=0;points=[];" vertex="1" connectable="0" parent="JAiuNVbHRDiF1WZMakBt-38">
          <mxGeometry x="-0.0064" y="-1" relative="1" as="geometry">
            <mxPoint as="offset" />
          </mxGeometry>
        </mxCell>
        <mxCell id="JAiuNVbHRDiF1WZMakBt-43" value="" style="endArrow=classic;html=1;rounded=0;exitX=0.658;exitY=0.013;exitDx=0;exitDy=0;exitPerimeter=0;entryX=0.663;entryY=1.004;entryDx=0;entryDy=0;entryPerimeter=0;" edge="1" parent="1" source="JAiuNVbHRDiF1WZMakBt-31" target="JAiuNVbHRDiF1WZMakBt-34">
          <mxGeometry width="50" height="50" relative="1" as="geometry">
            <mxPoint x="366" y="160" as="sourcePoint" />
            <mxPoint x="368" y="105" as="targetPoint" />
          </mxGeometry>
        </mxCell>
        <mxCell id="JAiuNVbHRDiF1WZMakBt-44" value="&#39;\&#39;/&#39;\&#39;" style="edgeLabel;html=1;align=center;verticalAlign=middle;resizable=0;points=[];" vertex="1" connectable="0" parent="JAiuNVbHRDiF1WZMakBt-43">
          <mxGeometry x="-0.1069" y="-1" relative="1" as="geometry">
            <mxPoint as="offset" />
          </mxGeometry>
        </mxCell>
        <mxCell id="JAiuNVbHRDiF1WZMakBt-45" value="" style="endArrow=classic;html=1;rounded=0;exitX=0.338;exitY=0.975;exitDx=0;exitDy=0;exitPerimeter=0;entryX=0.321;entryY=0.042;entryDx=0;entryDy=0;entryPerimeter=0;" edge="1" parent="1" source="JAiuNVbHRDiF1WZMakBt-34" target="JAiuNVbHRDiF1WZMakBt-31">
          <mxGeometry width="50" height="50" relative="1" as="geometry">
            <mxPoint x="341" y="108" as="sourcePoint" />
            <mxPoint x="340" y="158" as="targetPoint" />
          </mxGeometry>
        </mxCell>
        <mxCell id="JAiuNVbHRDiF1WZMakBt-46" value="&lt;span style=&quot;font-size: 12px; background-color: rgb(27, 29, 30);&quot;&gt;∀&lt;/span&gt;&lt;sub style=&quot;background-color: rgb(27, 29, 30);&quot;&gt;C&lt;/sub&gt;&lt;span style=&quot;font-size: 12px; background-color: rgb(27, 29, 30);&quot;&gt;/C&lt;/span&gt;" style="edgeLabel;html=1;align=center;verticalAlign=middle;resizable=0;points=[];" vertex="1" connectable="0" parent="JAiuNVbHRDiF1WZMakBt-45">
          <mxGeometry x="-0.0064" y="-1" relative="1" as="geometry">
            <mxPoint as="offset" />
          </mxGeometry>
        </mxCell>
        <mxCell id="JAiuNVbHRDiF1WZMakBt-47" value="" style="endArrow=classic;html=1;rounded=0;exitX=0.804;exitY=0.117;exitDx=0;exitDy=0;exitPerimeter=0;" edge="1" parent="1" source="kYi4eVeZb-P7_ZHlsTHM-3" target="JAiuNVbHRDiF1WZMakBt-32">
          <mxGeometry width="50" height="50" relative="1" as="geometry">
            <mxPoint x="460" y="290" as="sourcePoint" />
            <mxPoint x="510" y="240" as="targetPoint" />
          </mxGeometry>
        </mxCell>
        <mxCell id="JAiuNVbHRDiF1WZMakBt-49" value="(&quot;)/(&quot;)" style="edgeLabel;html=1;align=center;verticalAlign=middle;resizable=0;points=[];" vertex="1" connectable="0" parent="JAiuNVbHRDiF1WZMakBt-47">
          <mxGeometry x="0.0282" relative="1" as="geometry">
            <mxPoint as="offset" />
          </mxGeometry>
        </mxCell>
        <mxCell id="JAiuNVbHRDiF1WZMakBt-48" value="" style="endArrow=classic;html=1;rounded=0;exitX=0.125;exitY=0.817;exitDx=0;exitDy=0;exitPerimeter=0;" edge="1" parent="1" source="JAiuNVbHRDiF1WZMakBt-32" target="kYi4eVeZb-P7_ZHlsTHM-3">
          <mxGeometry width="50" height="50" relative="1" as="geometry">
            <mxPoint x="475" y="230" as="sourcePoint" />
            <mxPoint x="435" y="300" as="targetPoint" />
          </mxGeometry>
        </mxCell>
        <mxCell id="JAiuNVbHRDiF1WZMakBt-50" value="(&quot;)/(&quot;)" style="edgeLabel;html=1;align=center;verticalAlign=middle;resizable=0;points=[];" vertex="1" connectable="0" parent="JAiuNVbHRDiF1WZMakBt-48">
          <mxGeometry x="-0.1364" y="-1" relative="1" as="geometry">
            <mxPoint as="offset" />
          </mxGeometry>
        </mxCell>
        <mxCell id="JAiuNVbHRDiF1WZMakBt-51" value="" style="endArrow=classic;html=1;rounded=0;exitX=0.3;exitY=0.046;exitDx=0;exitDy=0;exitPerimeter=0;" edge="1" parent="1" source="kYi4eVeZb-P7_ZHlsTHM-3" target="JAiuNVbHRDiF1WZMakBt-31">
          <mxGeometry width="50" height="50" relative="1" as="geometry">
            <mxPoint x="460" y="290" as="sourcePoint" />
            <mxPoint x="510" y="240" as="targetPoint" />
          </mxGeometry>
        </mxCell>
        <mxCell id="JAiuNVbHRDiF1WZMakBt-56" value="(&#39;)/(&#39;)" style="edgeLabel;html=1;align=center;verticalAlign=middle;resizable=0;points=[];" vertex="1" connectable="0" parent="JAiuNVbHRDiF1WZMakBt-51">
          <mxGeometry x="-0.0815" y="-1" relative="1" as="geometry">
            <mxPoint as="offset" />
          </mxGeometry>
        </mxCell>
        <mxCell id="JAiuNVbHRDiF1WZMakBt-52" value="" style="endArrow=classic;html=1;rounded=0;exitX=0.4;exitY=1;exitDx=0;exitDy=0;exitPerimeter=0;" edge="1" parent="1" source="JAiuNVbHRDiF1WZMakBt-31" target="kYi4eVeZb-P7_ZHlsTHM-3">
          <mxGeometry width="50" height="50" relative="1" as="geometry">
            <mxPoint x="290" y="310" as="sourcePoint" />
            <mxPoint x="340" y="260" as="targetPoint" />
          </mxGeometry>
        </mxCell>
        <mxCell id="JAiuNVbHRDiF1WZMakBt-53" value="(&#39;)/(&#39;)" style="edgeLabel;html=1;align=center;verticalAlign=middle;resizable=0;points=[];" vertex="1" connectable="0" parent="JAiuNVbHRDiF1WZMakBt-52">
          <mxGeometry x="-0.0869" y="1" relative="1" as="geometry">
            <mxPoint as="offset" />
          </mxGeometry>
        </mxCell>
        <mxCell id="JAiuNVbHRDiF1WZMakBt-57" value="One Line Comment" style="ellipse;whiteSpace=wrap;html=1;aspect=fixed;" vertex="1" parent="1">
          <mxGeometry x="750" y="310" width="80" height="80" as="geometry" />
        </mxCell>
        <mxCell id="JAiuNVbHRDiF1WZMakBt-58" value="" style="endArrow=classic;html=1;rounded=0;" edge="1" parent="1" source="kYi4eVeZb-P7_ZHlsTHM-6" target="JAiuNVbHRDiF1WZMakBt-57">
          <mxGeometry width="50" height="50" relative="1" as="geometry">
            <mxPoint x="620" y="410" as="sourcePoint" />
            <mxPoint x="670" y="360" as="targetPoint" />
          </mxGeometry>
        </mxCell>
        <mxCell id="JAiuNVbHRDiF1WZMakBt-61" value="&#39;/&#39;" style="edgeLabel;html=1;align=center;verticalAlign=middle;resizable=0;points=[];" vertex="1" connectable="0" parent="JAiuNVbHRDiF1WZMakBt-58">
          <mxGeometry x="0.0311" y="1" relative="1" as="geometry">
            <mxPoint as="offset" />
          </mxGeometry>
        </mxCell>
        <mxCell id="JAiuNVbHRDiF1WZMakBt-62" value="" style="curved=1;endArrow=classic;html=1;rounded=0;entryX=0.473;entryY=0.142;entryDx=0;entryDy=0;entryPerimeter=0;" edge="1" parent="1" source="JAiuNVbHRDiF1WZMakBt-57" target="kYi4eVeZb-P7_ZHlsTHM-27">
          <mxGeometry width="50" height="50" relative="1" as="geometry">
            <mxPoint x="609" y="322" as="sourcePoint" />
            <mxPoint x="465" y="322" as="targetPoint" />
            <Array as="points">
              <mxPoint x="630" y="210" />
            </Array>
          </mxGeometry>
        </mxCell>
        <mxCell id="JAiuNVbHRDiF1WZMakBt-63" value="\n || \r /C" style="edgeLabel;html=1;align=center;verticalAlign=middle;resizable=0;points=[];" vertex="1" connectable="0" parent="JAiuNVbHRDiF1WZMakBt-62">
          <mxGeometry x="-0.2145" y="1" relative="1" as="geometry">
            <mxPoint as="offset" />
          </mxGeometry>
        </mxCell>
      </root>
    </mxGraphModel>
  </diagram>
</mxfile>
